Coordinates
version=1
nRows=21
nColumns=38
inDegrees=no

Units are S.I. units (second, meters, Newtons, ...)
If the header above contains a line with 'inDegrees', this indicates whether rotational values are in degrees (yes) or radians (no).

endheader
time	pelvis_tilt	pelvis_list	pelvis_rotation	pelvis_tx	pelvis_ty	pelvis_tz	hip_flexion_r	hip_adduction_r	hip_rotation_r	knee_angle_r	ankle_angle_r	subtalar_angle_r	mtp_angle_r	hip_flexion_l	hip_adduction_l	hip_rotation_l	knee_angle_l	ankle_angle_l	subtalar_angle_l	mtp_angle_l	lumbar_extension	lumbar_bending	lumbar_rotation	arm_flex_r	arm_add_r	arm_rot_r	elbow_flex_r	pro_sup_r	wrist_flex_r	wrist_dev_r	arm_flex_l	arm_add_l	arm_rot_l	elbow_flex_l	pro_sup_l	wrist_flex_l	wrist_dev_l
2.6	-0.0424664	-0.044124	0.0289517	1.17772	0.964047	-0.306682	0.310983	0.131487	0.0566604	-0.873022	0.484268	-0.0103617	-0.0050004	0.417012	0.0248724	0.0841033	-1.43018	0.170209	-0.0290214	-0.00540595	-0.209059	0.116786	0.162182	-0.410074	-0.174545	-0.0897612	2.05845	1.68689	-0.00428751	0.00297748	-0.537917	-0.187195	0.0228996	1.78328	1.63704	0.0215068	0.00774612
2.61	-0.0572022	-0.0388309	0.0270566	1.17659	0.967478	-0.306819	0.290101	0.125022	0.0642032	-0.84385	0.471428	-0.0103617	-0.0050004	0.45266	0.02553	0.0711294	-1.40338	0.180336	-0.0290214	-0.00540595	-0.191751	0.108362	0.180543	-0.413909	-0.177773	-0.083624	2.09583	1.69573	-0.00428751	0.00297748	-0.573146	-0.199197	0.0204565	1.81748	1.59877	0.0215068	0.00774612
2.62	-0.0724424	-0.0334428	0.0251448	1.17569	0.971579	-0.307025	0.268153	0.11781	0.0712846	-0.810481	0.452348	-0.0103617	-0.0050004	0.485581	0.0262901	0.057402	-1.36866	0.188665	-0.0290214	-0.00540595	-0.173341	0.0998243	0.196671	-0.417887	-0.183816	-0.0737897	2.13313	1.70509	-0.00428751	0.00297748	-0.609442	-0.210052	0.0167674	1.85367	1.56086	0.0215068	0.00774612
2.63	-0.0878697	-0.0278525	0.0236752	1.17501	0.976257	-0.307332	0.245197	0.109616	0.0771914	-0.773508	0.427147	-0.0103617	-0.0050004	0.515235	0.0279423	0.0441247	-1.32609	0.195053	-0.0290214	-0.00540595	-0.154218	0.0911331	0.210144	-0.421659	-0.192304	-0.060721	2.16871	1.71479	-0.00428751	0.00297748	-0.646024	-0.219048	0.0114535	1.89004	1.52561	0.0215068	0.00774612
2.64	-0.103282	-0.021931	0.0229709	1.17454	0.98139	-0.307768	0.22146	0.100265	0.0813132	-0.733686	0.396158	-0.0103617	-0.0050004	0.541244	0.0311808	0.0323256	-1.27574	0.199465	-0.0290214	-0.00540595	-0.134667	0.0821658	0.220783	-0.425144	-0.202778	-0.0450233	2.20145	1.72445	-0.00428751	0.00297748	-0.682186	-0.22576	0.00434423	1.92522	1.49469	0.0215068	0.00774612
2.65	-0.118554	-0.0155788	0.0231902	1.17427	0.986837	-0.308334	0.197295	0.0897058	0.0832145	-0.691916	0.359931	-0.0103617	-0.0050004	0.563357	0.0364789	0.0227995	-1.21771	0.20199	-0.0290214	-0.00540595	-0.114914	0.0727859	0.22866	-0.428471	-0.21474	-0.0273622	2.23069	1.73347	-0.00428751	0.00297748	-0.717302	-0.230063	-0.00451844	1.95833	1.46902	0.0215068	0.00774612
2.66	-0.133582	-0.00876961	0.0243278	1.17416	0.992451	-0.309016	0.173109	0.0780502	0.0826822	-0.649221	0.31922	-0.0103617	-0.0050004	0.581389	0.0440033	0.0160841	-1.15212	0.202823	-0.0290214	-0.00540595	-0.0951811	0.0629078	0.234078	-0.431906	-0.227694	-0.00840278	2.2562	1.74109	-0.00428751	0.00297748	-0.750828	-0.232106	-0.0149014	1.98889	1.44887	0.0215068	0.00774612
2.67	-0.148223	-0.00157765	0.0262415	1.1742	0.998082	-0.309792	0.149279	0.0655841	0.0797442	-0.60671	0.274942	-0.0103617	-0.0050004	0.595156	0.0535845	0.0124595	-1.07919	0.202242	-0.0290214	-0.00540595	-0.0757445	0.0525503	0.23751	-0.435769	-0.24117	0.0112292	2.27804	1.74657	-0.00428751	0.00297748	-0.782288	-0.232263	-0.0264241	2.01676	1.43406	0.0215068	0.00774612
2.68	-0.162247	0.00581594	0.0286913	1.17435	1.00359	-0.31063	0.126095	0.0527489	0.0746549	-0.56554	0.228124	-0.0103617	-0.0050004	0.604433	0.0647414	0.0119628	-0.999267	0.200572	-0.0290214	-0.00540595	-0.0569848	0.0418701	0.239533	-0.44036	-0.254746	0.0309638	2.29642	1.74932	-0.00428751	0.00297748	-0.811263	-0.231048	-0.0386166	2.042	1.42413	0.0215068	0.00774612
2.69	-0.175328	0.0131347	0.0313781	1.17459	1.00887	-0.311484	0.103729	0.0400952	0.0678556	-0.526884	0.179847	-0.0103617	-0.0050004	0.608949	0.0767515	0.0144034	-0.912962	0.198146	-0.0290214	-0.00540595	-0.0393958	0.0311644	0.240753	-0.445916	-0.268055	0.0502831	2.31164	1.74911	-0.00428751	0.00297748	-0.837382	-0.229039	-0.0509752	2.06481	1.41855	0.0215068	0.00774612
2.7	-0.187054	0.020033	0.0339806	1.17488	1.0138	-0.312315	0.0822557	0.0282138	0.059923	-0.491899	0.131185	-0.0103617	-0.0050004	0.608437	0.0887549	0.0193747	-0.821205	0.19527	-0.0290214	-0.00540595	-0.023552	0.0208367	0.241746	-0.452587	-0.280787	0.068708	2.32402	1.74614	-0.00428751	0.00297748	-0.860314	-0.226796	-0.0630121	2.08544	1.41677	0.0215068	0.00774612
2.71	-0.196959	0.0261483	0.0361925	1.17522	1.01831	-0.313084	0.0617038	0.0176555	0.0515177	-0.461694	0.0831461	-0.0103617	-0.0050004	0.602725	0.0998813	0.0262709	-0.725346	0.192181	-0.0290214	-0.00540595	-0.010042	0.0113399	0.242999	-0.460421	-0.292682	0.0857889	2.33382	1.74103	-0.00428751	0.00297748	-0.879766	-0.224807	-0.0742929	2.10414	1.41827	0.0215068	0.00774612
2.72	-0.20457	0.031161	0.0377599	1.17559	1.02233	-0.313757	0.0421063	0.00885054	0.0433374	-0.437292	0.0366189	-0.0103617	-0.0050004	0.591829	0.109383	0.0343194	-0.627222	0.189023	-0.0290214	-0.00540595	0.000608702	0.00309628	0.244856	-0.469379	-0.303523	0.101108	2.34123	1.73462	-0.00428751	0.00297748	-0.895496	-0.223433	-0.0844651	2.12108	1.4225	0.0215068	0.00774612
2.73	-0.20948	0.0348203	0.038513	1.17598	1.0258	-0.314315	0.0235368	0.00203307	0.0360748	-0.419591	-0.00767059	-0.0103617	-0.0050004	0.576045	0.116765	0.0426388	-0.529189	0.185828	-0.0290214	-0.00540595	0.00799556	-0.00359933	0.247471	-0.479331	-0.313129	0.114299	2.34634	1.72772	-0.00428751	0.00297748	-0.90733	-0.222894	-0.0932792	2.13641	1.42889	0.0215068	0.00774612
2.74	-0.211459	0.0370523	0.0383894	1.17639	1.02866	-0.314747	0.00611668	-0.00277545	0.0303693	-0.409342	-0.0491838	-0.0103617	-0.0050004	0.55599	0.121848	0.0503279	-0.434116	0.182537	-0.0290214	-0.00540595	0.0118547	-0.00862108	0.250786	-0.490069	-0.321353	0.125077	2.34914	1.72084	-0.00428751	0.00297748	-0.91518	-0.223258	-0.100604	2.15022	1.43683	0.0215068	0.00774612
2.75	-0.210444	0.0379835	0.0374349	1.17682	1.03087	-0.315057	-0.00996311	-0.00575548	0.0267564	-0.407128	-0.0875615	-0.0103617	-0.0050004	0.532653	0.124794	0.056569	-0.345312	0.179057	-0.0290214	-0.00540595	0.0121035	-0.0120454	0.254537	-0.501301	-0.328077	0.133278	2.34953	1.71417	-0.00428751	0.00297748	-0.919066	-0.22446	-0.106427	2.16256	1.44571	0.0215068	0.00774612
2.76	-0.206532	0.0378999	0.0357837	1.17725	1.03239	-0.315251	-0.0244445	-0.0072473	0.0256188	-0.413357	-0.122582	-0.0103617	-0.0050004	0.507392	0.126066	0.0607328	-0.266413	0.175359	-0.0290214	-0.00540595	0.0088439	-0.0141568	0.258289	-0.512661	-0.33321	0.138902	2.34736	1.70771	-0.00428751	0.00297748	-0.919133	-0.226339	-0.110849	2.17348	1.45496	0.0215068	0.00774612
2.77	-0.19997	0.0371947	0.033629	1.17762	1.03317	-0.315352	-0.0370212	-0.00767825	0.0271478	-0.428259	-0.154092	-0.0103617	-0.0050004	0.481892	0.126336	0.0624692	-0.201195	0.171572	-0.0290214	-0.00540595	0.00234882	-0.015413	0.261494	-0.523708	-0.336678	0.14214	2.34241	1.7014	-0.00428751	0.00297748	-0.91564	-0.228682	-0.114064	2.18304	1.46407	0.0215068	0.00774612
2.78	-0.191137	0.0363149	0.0311926	1.17787	1.03318	-0.315364	-0.0473499	-0.00748544	0.0313239	-0.451885	-0.181915	-0.0103617	-0.0050004	0.458071	0.126362	0.0617578	-0.153308	0.168035	-0.0290214	-0.00540595	-0.0069655	-0.0163736	0.263565	-0.533959	-0.338426	0.143361	2.33445	1.69527	-0.00428751	0.00297748	-0.908938	-0.231278	-0.116331	2.19127	1.47261	0.0215068	0.00774612
2.79	-0.180518	0.0357065	0.0286902	1.17793	1.0324	-0.315294	-0.0550708	-0.00705409	0.0379262	-0.484109	-0.20577	-0.0103617	-0.0050004	0.437872	0.126863	0.0588982	-0.125828	0.165245	-0.0290214	-0.00540595	-0.0185856	-0.0176293	0.263946	-0.542919	-0.338404	0.143052	2.32323	1.68953	-0.00428751	0.00297748	-0.899423	-0.23396	-0.117935	2.19825	1.48028	0.0215068	0.00774612
2.8	-0.168664	0.0357831	0.0262982	1.17775	1.03078	-0.315146	-0.0598355	-0.00667835	0.0465708	-0.524626	-0.225213	-0.0103617	-0.0050004	0.422942	0.128423	0.054427	-0.120676	0.163705	-0.0290214	-0.00540595	-0.0319645	-0.0197243	0.262185	-0.550126	-0.33657	0.141727	2.30852	1.68451	-0.00428751	0.00297748	-0.887466	-0.236644	-0.119141	2.20396	1.48687	0.0215068	0.00774612
